# xmcd
#
# Track frame offsets:
#	150
#	15660
#	32605
#	58130
#	78647
#	100660
#	129442
#	144620
#	172960
#	195672
#	210245
#	228655
#
# Disc length: 3406 seconds
#
# Revision: 1
# Processed by: cddbd v1.5.1PL0 Copyright (c) Steve Scherf et al.
# Submitted via: CDex 1.50Beta5
#
DISCID=9b0d4c0c
DTITLE=MARINO - WORKS’83〜’86〜BEST OF MARINO〜
DYEAR=1992
DGENRE=Rock
TTITLE0=MIDNIGHT BELIEVER
TTITLE1=IMPACT
TTITLE2=NOTHING FOR YOU
TTITLE3=SINGER
TTITLE4=DANCING IN THE MOONLIGHT
TTITLE5=STREAM OF TIME
TTITLE6=BREAK
TTITLE7=YOU BETTER FIND OUT
TTITLE8=FROM ALL OF US,TO ALL OF YOU
TTITLE9=BRAVE AS A LION
TTITLE10=RASING
TTITLE11=STATION
EXTD=
EXTT0=
EXTT1=
EXTT2=
EXTT3=
EXTT4=
EXTT5=
EXTT6=
EXTT7=
EXTT8=
EXTT9=
EXTT10=
EXTT11=
PLAYORDER=
